<?xml version="1.0" standalone="no"?>
<!DOCTYPE svg PUBLIC "-//W3C//DTD SVG 20010904//EN"
 "http://www.w3.org/TR/2001/REC-SVG-20010904/DTD/svg10.dtd">
<svg version="1.0" xmlns="http://www.w3.org/2000/svg"
 width="300.000000pt" height="150.000000pt" viewBox="0 0 300.000000 150.000000"
 preserveAspectRatio="xMidYMid meet">

<g transform="translate(0.000000,150.000000) scale(0.100000,-0.100000)"
fill="#000000" stroke="none">
<path d="M980 760 l0 -630 100 0 100 0 0 630 0 630 -100 0 -100 0 0 -630z"/>
<path d="M297 1203 c-4 -3 -7 -204 -7 -445 l0 -438 105 0 105 0 0 445 0 445
-98 0 c-54 0 -102 -3 -105 -7z"/>
<path d="M647 1203 c-4 -3 -7 -204 -7 -445 l0 -438 105 0 105 0 0 445 0 445
-98 0 c-54 0 -102 -3 -105 -7z"/>
<path d="M1330 760 l0 -440 100 0 100 0 0 145 0 145 48 0 47 0 90 -145 90
-145 123 0 c96 0 121 3 116 13 -5 6 -48 75 -96 151 -87 138 -96 156 -79 156 4
0 29 16 54 35 100 76 137 234 83 350 -34 73 -69 110 -138 144 l-61 31 -239 0
-238 0 0 -440z m439 229 c61 -21 76 -96 29 -146 -20 -21 -30 -23 -145 -23
l-123 0 0 90 0 90 104 0 c56 0 117 -5 135 -11z"/>
<path d="M2110 1100 l0 -100 120 0 120 0 0 -340 0 -340 105 0 105 0 0 340 0
340 125 0 125 0 0 100 0 100 -350 0 -350 0 0 -100z"/>
</g>
</svg>
